<svg xmlns="http://www.w3.org/2000/svg" viewBox="0 0 1492 478">
  <path
    id="dbally-logo-corpus"
    fill="#ffffff"
    d="M 157.00,32.23
        C 160.58,32.00 165.24,31.79 168.75,32.19
          182.29,34.86 199.91,48.34 212.00,55.39
          212.00,55.39 238.00,68.00 238.00,68.00
          235.47,73.97 222.50,90.83 217.87,97.00
          217.87,97.00 193.87,129.00 193.87,129.00
          191.83,131.72 187.45,138.63 183.99,138.97
          181.04,139.26 178.32,136.05 176.68,133.98
          172.50,128.73 169.80,122.43 168.01,116.00
          165.03,105.25 166.12,95.99 166.00,85.00
          166.00,85.00 165.48,74.70 165.48,74.70
          165.48,74.70 165.04,60.00 165.04,60.00
          164.98,44.20 160.82,44.12 157.00,32.23 Z
        M 127.00,154.00
        C 127.00,154.00 86.00,159.00 86.00,159.00
          86.00,159.00 71.00,159.00 71.00,159.00
          61.12,158.88 53.88,154.99 47.04,147.99
          43.86,144.73 41.08,141.01 38.90,137.00
          35.95,131.59 29.51,114.90 33.17,109.31
          34.85,106.75 41.06,105.69 44.00,104.86
          49.75,103.23 68.98,98.50 72.66,95.35
          75.38,93.03 77.63,87.34 79.22,84.00
          79.22,84.00 91.47,59.00 91.47,59.00
          99.07,46.74 113.51,40.26 127.00,36.87
          131.51,35.74 141.68,32.91 145.91,34.60
          150.98,36.62 154.22,45.94 154.83,51.00
          154.83,51.00 156.00,96.00 156.00,96.00
          156.03,112.39 160.92,130.71 172.17,142.99
          174.28,145.28 183.12,153.24 186.33,152.41
          188.83,151.77 197.29,139.69 199.00,137.00
          199.00,137.00 201.00,137.00 201.00,137.00
          201.00,137.00 213.47,165.00 213.47,165.00
          213.47,165.00 225.00,180.00 225.00,180.00
          206.00,195.18 185.20,208.03 164.00,219.86
          156.73,223.92 141.63,232.57 134.00,234.00
          134.00,234.00 137.90,213.00 137.90,213.00
          137.90,213.00 131.60,194.00 131.60,194.00
          131.60,194.00 120.53,168.00 120.53,168.00
          120.53,168.00 114.00,159.00 114.00,159.00
          114.00,159.00 127.00,154.00 127.00,154.00 Z
        M 139.00,266.00
        C 147.13,263.68 164.09,255.11 172.00,250.94
          188.60,242.18 203.66,233.64 219.00,222.71
          219.00,222.71 238.00,208.40 238.00,208.40
          240.37,206.52 243.71,203.19 247.00,204.25
          249.63,205.09 255.53,211.62 258.00,213.83
          262.98,218.27 271.12,224.01 277.00,227.23
          299.55,239.56 325.35,246.12 346.00,261.63
          359.99,272.13 368.97,282.87 369.00,301.00
          369.00,301.00 369.52,331.00 369.52,331.00
          370.94,337.68 375.65,346.42 379.57,352.00
          382.58,356.28 385.85,360.11 390.00,363.32
          392.32,365.12 397.38,367.65 398.36,370.21
          399.35,372.80 396.85,385.64 396.20,389.00
          396.20,389.00 390.08,424.00 390.08,424.00
          389.41,428.02 387.99,438.89 386.07,441.89
          383.19,446.38 378.67,445.99 374.00,446.00
          374.00,446.00 341.50,446.00 341.50,446.00
          342.25,430.62 371.98,427.29 372.96,408.00
          373.76,392.23 363.28,387.73 352.00,380.46
          347.00,377.24 343.45,374.40 339.17,370.28
          331.76,363.16 325.27,355.03 320.31,346.00
          317.93,341.66 313.87,331.11 310.79,328.51
          307.84,326.01 298.95,323.43 295.00,322.29
          278.04,317.41 266.43,316.79 249.00,317.00
          245.95,317.04 241.47,316.64 239.04,317.96
          237.58,320.24 237.71,326.92 237.57,330.13
          237.57,330.13 237.04,338.00 237.04,338.00
          237.04,338.00 237.04,350.00 237.04,350.00
          236.75,377.27 234.48,396.37 224.20,422.00
          218.56,436.06 212.71,446.97 196.00,447.00
          188.54,447.01 175.62,447.06 169.44,446.91
          170.36,437.27 177.74,435.15 183.82,431.45
          189.75,427.84 194.98,427.04 198.45,420.27
          201.38,414.56 204.15,389.08 203.99,382.00
          203.99,382.00 202.96,373.00 202.96,373.00
          202.96,373.00 202.96,365.00 202.96,365.00
          202.96,365.00 196.60,327.00 196.60,327.00
          195.13,319.69 192.52,306.13 189.00,300.00
          188.79,302.55 187.00,308.96 186.48,310.96
          183.61,311.17 173.68,304.79 171.00,302.76
          162.11,296.04 155.58,288.58 148.61,280.00
          145.00,275.56 141.10,271.37 139.00,266.00 Z
        M 145.00,293.00
        C 145.00,293.00 174.20,322.79 174.20,322.79
          177.17,325.70 185.63,332.75 186.77,336.00
          187.76,338.85 185.31,343.08 184.44,346.00
          182.70,351.83 182.01,357.94 182.00,364.00
          181.97,384.92 182.74,406.73 173.24,426.00
          169.84,432.91 164.58,442.82 157.17,445.91
          154.16,447.17 149.28,447.00 146.00,447.00
          146.00,447.00 122.73,446.82 122.73,446.82
          123.00,435.82 137.91,432.18 149.49,425.35
          154.45,420.88 152.84,412.47 152.99,406.00
          152.99,406.00 151.09,380.00 151.09,380.00
          151.09,380.00 148.83,341.00 148.83,341.00
          148.83,341.00 145.91,305.00 145.91,305.00
          145.91,305.00 145.00,293.00 145.00,293.00 Z
        M 269.00,327.00
        C 276.43,327.34 285.84,329.58 293.00,331.72
          295.64,332.51 300.59,333.94 302.59,335.70
          305.06,337.88 308.26,346.58 309.97,350.00
          313.16,356.38 319.29,366.44 323.67,372.00
          326.98,376.20 331.73,381.03 336.00,384.24
          338.43,386.07 342.00,387.72 342.39,391.09
          342.62,393.15 340.05,401.41 339.37,404.00
          339.37,404.00 332.42,428.00 332.42,428.00
          330.62,434.18 329.64,439.12 323.96,443.08
          322.15,444.34 320.17,445.31 318.00,445.86
          318.00,445.86 285.06,445.50 280.38,445.50
          281.12,436.50 288.68,434.59 294.38,431.50
          303.07,426.79 307.03,427.37 311.95,418.00
          313.67,414.74 314.08,411.64 313.96,408.00
          313.51,394.45 302.35,388.40 294.30,379.00
          283.68,366.59 272.24,343.07 269.00,327.00 Z"
    />
    <path
      id="dbally-logo-collar"
      fill="#00b0e0"
      d="M 135.19,258.88
          C 134.03,256.76 131.10,247.40 133.01,244.70
            134.05,243.22 138.25,241.57 140.00,240.77
            140.00,240.77 155.00,233.70 155.00,233.70
            175.33,223.03 187.92,215.41 207.00,202.67
            207.00,202.67 225.00,189.85 225.00,189.85
            227.13,188.31 230.26,185.60 233.00,185.73
            238.28,185.98 243.30,193.28 239.67,197.71
            236.08,202.10 213.07,217.63 207.00,221.67
            207.00,221.67 178.00,239.00 178.00,239.00
            167.18,245.18 140.60,258.16 135.19,258.88 Z"
    />
    <path
      id="dbally-text-db"
      fill="#00b0e0"
      d="M 624.00,211.00
          C 624.00,211.00 624.00,136.00 624.00,136.00
            624.00,136.00 624.00,120.00 624.00,120.00
            624.00,120.00 625.60,114.02 625.60,114.02
            625.60,114.02 633.00,113.00 633.00,113.00
            633.00,113.00 669.00,113.00 669.00,113.00
            669.00,113.00 669.00,384.00 669.00,384.00
            669.00,384.00 644.00,384.00 644.00,384.00
            640.44,383.95 637.11,383.90 634.21,381.49
            629.48,377.56 627.50,364.08 627.00,358.00
            608.60,376.40 592.02,387.60 565.00,386.99
            530.65,386.21 509.67,361.39 501.63,330.00
            489.86,284.04 498.45,223.96 545.00,200.75
            553.46,196.54 562.50,194.11 572.00,194.00
            581.82,193.89 591.59,193.72 601.00,197.09
            610.35,200.44 616.26,205.22 624.00,211.00 Z
          M 714.00,384.00
          C 714.00,384.00 714.00,176.00 714.00,176.00
            714.00,176.00 714.00,122.00 714.00,122.00
            714.02,113.36 714.36,113.02 723.00,113.00
            723.00,113.00 759.00,113.00 759.00,113.00
            759.00,113.00 759.00,219.00 759.00,219.00
            774.66,207.84 780.34,199.30 801.00,195.61
            814.07,193.28 828.49,193.57 841.00,198.46
            870.93,210.17 885.95,245.56 886.00,276.00
            886.00,276.00 886.00,296.00 886.00,296.00
            885.95,330.87 866.37,372.28 831.00,383.12
            824.38,385.14 814.90,386.83 808.00,386.99
            785.65,387.49 772.32,379.31 757.00,364.00
            756.17,368.54 755.26,377.37 752.35,380.72
            749.20,384.36 744.36,383.99 740.00,384.00
            740.00,384.00 714.00,384.00 714.00,384.00 Z
          M 581.00,228.29
          C 576.39,229.05 573.25,229.68 569.00,231.81
            543.74,244.44 543.96,275.85 544.00,300.00
            544.04,324.14 552.48,350.67 581.00,351.00
            594.68,351.15 604.57,347.99 615.00,338.82
            617.61,336.52 622.21,332.23 623.40,329.00
            624.12,327.06 624.00,324.09 624.00,322.00
            624.00,322.00 624.00,252.00 624.00,252.00
            624.00,249.91 624.12,246.94 623.40,245.00
            622.43,242.35 620.07,240.03 618.00,238.18
            607.70,229.00 594.27,227.03 581.00,228.29 Z
          M 795.00,229.16
          C 782.89,231.14 774.80,235.33 766.00,244.01
            763.75,246.24 760.88,249.01 759.74,252.00
            758.87,254.28 759.00,257.55 759.00,260.00
            759.00,260.00 759.00,328.00 759.00,328.00
            759.00,330.09 758.88,333.06 759.60,335.00
            760.88,338.49 765.06,342.06 768.00,344.24
            778.38,351.95 791.47,353.39 804.00,351.82
            822.01,349.55 833.30,333.68 836.99,317.00
            839.56,305.36 840.06,294.85 840.00,283.00
            839.91,263.22 835.33,238.50 814.00,231.36
            810.60,230.22 804.59,229.18 801.00,229.16
            801.00,229.16 795.00,229.16 795.00,229.16 Z"
  />
  <path
    id="dbally-text-ally"
    fill="#ffffff"
    d="M 1106.00,113.00
        C 1106.00,113.00 1151.00,113.00 1151.00,113.00
          1151.00,113.00 1151.00,384.00 1151.00,384.00
          1151.00,384.00 1106.00,384.00 1106.00,384.00
          1106.00,384.00 1106.00,113.00 1106.00,113.00 Z
        M 1197.00,113.00
        C 1197.00,113.00 1242.00,113.00 1242.00,113.00
          1242.00,113.00 1242.00,384.00 1242.00,384.00
          1242.00,384.00 1197.00,384.00 1197.00,384.00
          1197.00,384.00 1197.00,113.00 1197.00,113.00 Z
        M 1019.00,277.00
        C 1019.00,277.00 1019.00,264.00 1019.00,264.00
          1018.99,258.30 1018.67,254.52 1016.96,249.00
          1010.85,229.28 988.37,225.56 971.00,231.54
          958.76,235.76 952.66,241.25 947.00,243.52
          934.60,248.50 927.71,243.89 921.43,233.00
          920.22,230.91 917.62,226.40 917.70,224.04
          917.82,220.79 921.66,218.25 924.00,216.42
          930.94,211.01 938.87,206.39 947.00,203.01
          947.00,203.01 961.00,197.75 961.00,197.75
          987.53,190.31 1024.82,191.64 1044.83,213.04
          1054.94,223.86 1060.81,238.42 1062.94,253.00
          1062.94,253.00 1062.94,261.00 1062.94,261.00
          1062.94,261.00 1064.00,270.00 1064.00,270.00
          1064.00,270.00 1064.00,384.00 1064.00,384.00
          1056.27,384.00 1036.78,385.76 1031.39,380.58
          1027.53,376.88 1025.54,367.26 1024.00,362.00
          1024.00,362.00 1008.00,373.76 1008.00,373.76
          995.72,381.62 980.68,386.82 966.00,387.00
          951.71,387.16 936.74,385.01 925.00,376.24
          907.40,363.09 901.79,332.67 913.56,314.00
          920.55,302.91 932.18,295.21 944.00,290.15
          965.17,281.08 995.99,277.00 1019.00,277.00 Z
        M 1267.00,197.00
        C 1267.00,197.00 1302.00,197.00 1302.00,197.00
          1305.30,197.01 1308.97,196.82 1312.00,198.31
          1319.76,202.14 1325.18,219.94 1328.40,228.00
          1328.40,228.00 1355.42,294.00 1355.42,294.00
          1358.08,300.25 1362.33,316.07 1366.00,320.00
          1367.26,311.88 1375.94,290.65 1379.40,282.00
          1379.40,282.00 1401.81,224.00 1401.81,224.00
          1404.79,216.32 1408.61,202.20 1416.00,198.45
          1419.24,196.81 1422.49,197.01 1426.00,197.00
          1426.00,197.00 1457.00,197.00 1457.00,197.00
          1455.78,203.74 1451.64,211.41 1449.00,218.00
          1449.00,218.00 1428.86,265.00 1428.86,265.00
          1428.86,265.00 1375.85,389.00 1375.85,389.00
          1375.85,389.00 1360.86,424.00 1360.86,424.00
          1357.88,430.79 1355.46,440.93 1348.00,443.99
          1345.16,445.16 1342.00,445.00 1339.00,445.00
          1339.00,445.00 1308.00,445.00 1308.00,445.00
          1308.00,445.00 1316.69,425.00 1316.69,425.00
          1316.69,425.00 1332.86,390.00 1332.86,390.00
          1332.86,390.00 1341.24,370.00 1341.24,370.00
          1341.24,370.00 1335.43,355.00 1335.43,355.00
          1335.43,355.00 1321.42,323.00 1321.42,323.00
          1321.42,323.00 1283.57,236.00 1283.57,236.00
          1283.57,236.00 1267.00,197.00 1267.00,197.00 Z
        M 1019.00,304.00
        C 1008.76,304.47 998.10,305.60 988.00,307.42
          981.54,308.59 972.90,310.21 967.00,312.90
          962.26,315.06 956.68,318.58 953.82,323.00
          948.02,331.95 949.92,346.14 959.00,352.03
          971.83,360.36 995.15,355.19 1007.00,346.96
          1015.37,341.15 1018.98,339.37 1019.00,329.00
          1019.00,329.00 1019.00,304.00 1019.00,304.00 Z"
  />
</svg>
