<svg xmlns="http://www.w3.org/2000/svg" viewBox="0 0 1202 1330">
  <path
    id="dbally-logo-corpus"
    fill="#ffffff"
    d="M 414.00,38.00
      C 419.24,37.06 427.74,36.03 433.00,36.00
        433.00,36.00 437.00,36.00 437.00,36.00
        448.39,36.02 458.44,39.41 469.00,43.32
        491.44,51.61 507.71,61.43 528.00,73.60
        528.00,73.60 592.00,112.56 592.00,112.56
        592.00,112.56 665.00,146.00 665.00,146.00
        665.00,146.00 651.71,166.00 651.71,166.00
        651.71,166.00 621.42,207.00 621.42,207.00
        621.42,207.00 538.13,319.00 538.13,319.00
        538.13,319.00 517.12,347.00 517.12,347.00
        517.12,347.00 502.00,367.00 502.00,367.00
        492.78,365.07 482.36,353.13 476.43,346.00
        461.18,327.63 452.77,304.09 447.79,281.00
        445.94,272.41 444.05,262.79 444.00,254.00
        444.00,254.00 443.00,236.00 443.00,236.00
        443.00,236.00 443.00,184.00 443.00,184.00
        443.00,184.00 442.00,167.00 442.00,167.00
        441.96,140.47 443.78,107.16 436.28,82.00
        432.82,70.40 427.57,58.12 420.92,48.00
        420.92,48.00 414.00,38.00 414.00,38.00 Z
      M 157.82,234.00
      C 163.00,231.27 160.80,234.31 164.91,228.82
        164.91,228.82 181.31,193.00 181.31,193.00
        191.24,171.37 209.15,131.25 221.86,113.00
        248.44,74.84 299.04,56.19 343.00,47.40
        343.00,47.40 378.00,41.17 378.00,41.17
        386.65,40.50 392.49,50.62 396.81,57.00
        405.10,69.26 411.97,92.20 412.00,107.00
        412.00,107.00 413.00,125.00 413.00,125.00
        413.00,125.00 413.00,172.00 413.00,172.00
        413.00,172.00 414.00,193.00 414.00,193.00
        414.00,193.00 414.00,227.00 414.00,227.00
        414.00,227.00 415.00,242.00 415.00,242.00
        415.00,242.00 415.00,251.00 415.00,251.00
        415.01,259.37 416.94,270.69 418.60,279.00
        423.90,305.49 429.71,324.13 442.77,348.00
        452.74,366.23 470.45,384.95 488.00,395.95
        490.73,397.66 504.07,405.57 506.54,405.52
        509.53,405.46 516.37,395.57 518.35,393.00
        518.35,393.00 536.63,369.00 536.63,369.00
        540.62,363.68 543.85,357.93 550.00,355.00
        550.00,355.00 566.58,397.00 566.58,397.00
        571.78,409.20 584.12,436.87 591.03,447.00
        597.10,455.90 604.75,464.12 612.09,472.00
        616.50,476.73 622.13,480.62 624.00,487.00
        624.00,487.00 604.00,501.85 604.00,501.85
        604.00,501.85 566.00,528.98 566.00,528.98
        523.02,558.59 478.55,585.45 433.00,610.86
        433.00,610.86 375.00,640.78 375.00,640.78
        368.00,644.09 354.85,651.05 348.00,653.00
        349.32,636.87 358.79,611.82 359.00,594.00
        359.26,571.80 349.12,553.15 341.20,533.00
        341.20,533.00 309.14,455.00 309.14,455.00
        305.26,447.90 301.71,442.28 296.54,436.00
        292.12,430.63 288.64,428.75 286.00,422.00
        286.00,422.00 337.00,405.00 337.00,405.00
        337.00,405.00 303.00,409.72 303.00,409.72
        303.00,409.72 219.00,421.85 219.00,421.85
        198.33,424.25 177.78,424.14 157.00,424.00
        146.77,423.93 136.63,422.16 126.91,418.86
        123.32,417.64 118.40,415.96 116.00,413.00
        116.00,413.00 114.00,414.00 114.00,414.00
        114.00,414.00 114.00,412.00 114.00,412.00
        109.58,411.72 105.81,408.89 102.28,406.37
        95.63,401.62 89.72,396.88 83.92,391.08
        71.77,378.93 59.93,361.71 52.82,346.04
        52.82,346.04 48.33,334.35 48.33,334.35
        43.69,323.49 37.14,303.69 37.00,292.00
        37.00,292.00 37.00,282.00 37.00,282.00
        37.07,276.46 37.46,269.26 43.04,266.43
        43.04,266.43 66.56,260.32 66.56,260.32
        66.56,260.32 111.15,247.65 111.15,247.65
        117.58,245.77 134.64,239.91 139.91,239.27
        143.09,238.18 144.82,238.18 147.73,237.09
        147.73,237.09 157.82,234.00 157.82,234.00 Z
      M 361.00,751.00
      C 361.00,751.00 394.00,736.58 394.00,736.58
        394.00,736.58 443.00,713.75 443.00,713.75
        497.05,686.92 549.01,656.08 599.00,622.33
        620.63,607.73 641.63,591.70 662.00,575.40
        662.00,575.40 679.00,561.61 679.00,561.61
        680.93,560.05 684.48,556.95 687.00,556.82
        690.46,556.66 693.38,560.67 695.42,563.00
        695.42,563.00 711.00,579.00 711.00,579.00
        729.05,596.97 755.94,616.00 778.00,628.99
        829.67,659.41 887.50,677.01 941.00,703.75
        941.00,703.75 965.00,715.87 965.00,715.87
        965.00,715.87 994.00,736.58 994.00,736.58
        994.00,736.58 1011.00,749.18 1011.00,749.18
        1015.80,753.41 1019.94,758.21 1024.15,763.00
        1043.90,785.42 1061.95,814.04 1062.00,845.00
        1062.00,845.00 1062.00,934.00 1062.00,934.00
        1062.03,950.27 1068.57,966.60 1075.75,981.00
        1093.07,1015.71 1118.18,1047.27 1155.00,1062.00
        1155.00,1062.00 1123.59,1243.00 1123.59,1243.00
        1123.59,1243.00 1119.08,1269.00 1119.08,1269.00
        1118.36,1273.34 1117.06,1281.34 1114.91,1284.99
        1110.12,1293.14 1098.89,1296.99 1090.00,1297.00
        1090.00,1297.00 981.18,1297.09 981.18,1297.09
        988.85,1267.42 1017.60,1258.07 1040.67,1242.67
        1059.76,1229.92 1066.20,1217.91 1072.96,1195.00
        1075.07,1187.86 1075.08,1179.40 1075.00,1172.00
        1074.73,1149.03 1061.06,1129.35 1043.00,1116.16
        1043.00,1116.16 1003.00,1091.92 1003.00,1091.92
        989.61,1083.13 978.29,1073.29 967.00,1062.00
        942.86,1037.86 925.47,1012.89 909.31,983.00
        909.31,983.00 896.00,954.00 896.00,954.00
        894.10,949.53 891.36,941.65 887.79,938.63
        884.36,935.74 875.44,932.61 871.00,930.95
        871.00,930.95 838.00,919.86 838.00,919.86
        809.27,911.69 780.73,906.95 751.00,904.91
        751.00,904.91 739.00,904.00 739.00,904.00
        739.00,904.00 703.00,904.00 703.00,904.00
        703.00,904.00 688.00,905.00 688.00,905.00
        683.35,905.05 669.67,904.79 666.74,908.31
        665.16,910.21 664.59,914.54 664.29,917.00
        664.29,917.00 662.91,938.00 662.91,938.00
        662.91,938.00 661.00,972.00 661.00,972.00
        661.00,972.00 660.00,989.00 660.00,989.00
        660.00,989.00 660.00,1015.00 660.00,1015.00
        660.00,1015.00 659.00,1030.00 659.00,1030.00
        659.00,1030.00 659.00,1052.00 659.00,1052.00
        659.00,1052.00 657.96,1064.00 657.96,1064.00
        657.96,1064.00 657.96,1074.00 657.96,1074.00
        655.73,1096.05 650.21,1130.52 645.12,1152.00
        639.06,1177.56 627.26,1209.77 616.85,1234.00
        608.81,1252.72 599.07,1269.94 584.00,1283.91
        579.10,1288.45 567.52,1296.20 561.00,1297.87
        558.88,1298.07 494.00,1297.87 494.00,1297.87
        481.34,1298.00 471.76,1297.76 458.76,1297.69
        459.09,1282.55 486.28,1264.11 502.64,1255.13
        518.18,1246.59 535.09,1240.90 543.62,1224.00
        547.71,1215.90 550.53,1198.37 552.08,1189.00
        552.08,1189.00 558.00,1140.00 558.00,1140.00
        558.00,1140.00 559.00,1120.00 559.00,1120.00
        559.00,1120.00 559.00,1094.00 559.00,1094.00
        559.00,1094.00 558.00,1079.00 558.00,1079.00
        557.54,1039.65 547.01,976.08 538.42,937.00
        538.42,937.00 525.37,881.00 525.37,881.00
        523.29,872.77 520.18,857.77 516.00,851.00
        515.49,856.62 512.07,868.10 510.42,874.00
        509.70,876.61 508.94,881.45 506.57,882.96
        503.28,885.06 496.25,881.24 493.00,879.85
        479.76,874.17 471.46,869.10 460.00,860.35
        427.03,835.16 413.43,817.67 388.00,786.00
        381.41,777.79 365.19,759.13 361.00,751.00 Z
      M 380.00,830.00
      C 380.00,830.00 382.00,830.00 382.00,830.00
        382.00,830.00 413.91,865.00 413.91,865.00
        413.91,865.00 474.00,927.00 474.00,927.00
        474.00,927.00 486.00,938.04 486.00,938.04
        486.00,938.04 501.00,952.99 501.00,952.99
        503.27,955.20 509.91,960.42 510.70,963.01
        511.59,965.92 508.66,969.45 507.37,972.00
        505.13,976.44 501.83,986.07 500.43,991.00
        496.14,1006.02 493.03,1024.40 493.00,1040.00
        493.00,1040.00 492.00,1059.00 492.00,1059.00
        492.00,1059.00 492.00,1119.00 492.00,1119.00
        492.00,1119.00 491.00,1134.00 491.00,1134.00
        490.57,1170.89 477.73,1217.01 459.42,1249.00
        450.42,1264.72 433.25,1292.71 415.00,1297.39
        412.26,1298.10 412.05,1298.00 409.26,1298.00
        409.26,1298.00 309.00,1297.75 309.00,1297.75
        314.33,1272.67 352.67,1252.67 352.67,1252.67
        362.33,1247.67 379.12,1239.18 383.91,1234.79
        397.62,1222.24 403.66,1197.00 403.66,1179.00
        403.66,1179.00 403.00,1168.00 403.00,1168.00
        403.00,1168.00 403.00,1154.00 403.00,1154.00
        403.00,1154.00 402.00,1135.00 402.00,1135.00
        402.00,1135.00 401.00,1118.00 401.00,1118.00
        401.00,1118.00 400.00,1101.00 400.00,1101.00
        400.00,1101.00 399.09,1087.00 399.09,1087.00
        399.09,1087.00 397.91,1064.00 397.91,1064.00
        397.91,1064.00 395.09,1031.00 395.09,1031.00
        395.09,1031.00 386.91,918.00 386.91,918.00
        386.91,918.00 381.91,857.00 381.91,857.00
        381.91,857.00 380.00,830.00 380.00,830.00 Z
      M 758.00,935.00
      C 780.68,935.00 813.19,943.37 835.00,950.34
        840.50,952.10 857.94,957.23 861.37,960.64
        864.19,963.44 867.98,973.01 869.60,977.00
        869.60,977.00 881.31,1003.00 881.31,1003.00
        890.11,1022.16 908.97,1053.56 922.00,1070.00
        935.39,1086.89 945.38,1098.06 963.00,1110.85
        967.21,1113.91 981.74,1121.10 982.67,1125.18
        983.35,1128.20 980.74,1135.75 979.88,1139.00
        979.88,1139.00 970.58,1172.00 970.58,1172.00
        970.58,1172.00 952.42,1236.00 952.42,1236.00
        949.80,1245.19 945.10,1263.46 940.54,1271.00
        931.78,1285.46 916.27,1296.97 899.00,1297.00
        899.00,1297.00 796.85,1296.91 796.85,1296.91
        805.82,1264.73 846.88,1252.78 846.88,1252.78
        850.88,1251.41 881.37,1234.89 892.30,1204.00
        895.55,1194.82 895.11,1187.51 895.00,1178.00
        894.62,1146.03 872.08,1129.58 851.00,1109.91
        845.48,1104.77 840.30,1098.77 835.44,1093.00
        807.64,1060.00 786.97,1020.29 771.95,980.00
        768.18,969.90 758.81,944.65 758.00,935.00 Z
      M 166.55,235.73"
  />
  <path
    id="dbally-logo-collar"
    fill="#ffffff"
    d="M 645.00,501.84
        C 646.81,501.59 646.98,501.20 649.00,501.84
          655.90,503.73 667.73,517.17 672.10,523.00
          674.69,526.45 678.18,530.58 675.39,534.91
          673.42,537.95 660.62,547.60 657.00,550.42
          657.00,550.42 613.00,583.42 613.00,583.42
          556.27,623.96 496.31,659.09 434.00,690.25
          434.00,690.25 376.00,717.28 376.00,717.28
          376.00,717.28 359.00,724.19 359.00,724.19
          357.13,724.91 353.05,726.54 351.13,726.36
          347.30,726.00 346.60,720.03 345.88,717.00
          343.94,708.79 342.43,700.42 341.97,692.00
          341.73,687.76 339.91,684.46 344.13,681.82
          344.13,681.82 365.00,672.58 365.00,672.58
          365.00,672.58 399.00,656.75 399.00,656.75
          437.59,637.59 475.37,616.27 512.00,593.58
          542.66,574.58 572.76,554.69 602.00,533.58
          602.00,533.58 629.00,513.35 629.00,513.35
          634.16,509.37 639.14,504.80 645.00,501.84 Z"
  />
</svg>
